<svg id="Capa_1" enable-background="new 0 0 512 512" height="512" viewBox="0 0 512 512" width="512" xmlns="http://www.w3.org/2000/svg"><g><path d="m123 171.423h-30v-121.994c0-27.255 22.174-49.429 49.429-49.429h144.25c27.255 0 49.428 22.174 49.428 49.429v52.926h-30v-52.926c0-10.713-8.715-19.429-19.428-19.429h-144.25c-10.713 0-19.429 8.716-19.429 19.429z" fill="#4e588b"/><path d="m71.36 140.21h71.35v94.73h-71.35z" fill="#d6d6ea"/><path d="m107.04 140.21h35.67v94.73h-35.67z" fill="#a9aaca"/><path d="m285.43 68.86h71.36v95.09h-71.36z" fill="#d6d6ea"/><path d="m321.11 68.86h35.68v95.09h-35.68z" fill="#a9aaca"/><path d="m512 482-30 15v-172.143c0-10.713-8.716-19.428-19.429-19.428h-48.428v-30h48.428c27.255 0 49.429 22.173 49.429 49.428z" fill="#293e65"/><path d="m428.14 211.57v285.43h-214.07v-285.43l107.04-14z" fill="#d6d6ea"/><path d="m428.14 211.57v285.43h-107.03v-299.43z" fill="#a9aaca"/><path d="m340.54 197.57v62.86h-38.86v-62.86h-30v258h30v-27.43h38.86v27.43h30v-258zm0 200.57h-38.86v-38.85h38.86zm0-68.85h-38.86v-38.86h38.86z" fill="#4e588b"/><path d="m370.54 197.57v258h-30v-27.43h-19.43v-30h19.43v-38.85h-19.43v-30h19.43v-38.86h-19.43v-30h19.43v-62.86z" fill="#293e65"/><path d="m428.14 211.57h-214.07c0-39.41 31.95-71.36 71.36-71.36h71.36c39.41 0 71.35 31.95 71.35 71.36z" fill="#f1f1f1"/><path d="m428.14 211.57h-107.03v-71.36h35.68c39.41 0 71.35 31.95 71.35 71.36z" fill="#d6d6ea"/><path d="m214.07 282.93v214.07h-214.07v-214.07l107.04-14z" fill="#d6d6ea"/><path d="m214.07 282.93v214.07h-107.03v-228.07z" fill="#a9aaca"/><path d="m141.46 413.14v30h-20.52v50.86h-30v-50.86h-18.33v-30z" fill="#4e588b"/><path d="m141.46 413.14v30h-20.52v50.86h-13.9v-80.86z" fill="#293e65"/><path d="m214.07 280.43v2.5h-214.07v-2.5c0-38.03 30.83-68.86 68.86-68.86h76.35c38.03 0 68.86 30.83 68.86 68.86z" fill="#f1f1f1"/><path d="m214.07 280.43v2.5h-107.03v-71.36h38.17c38.03 0 68.86 30.83 68.86 68.86z" fill="#d6d6ea"/><path d="m0 482h512v30h-512z" fill="#8adb51"/><path d="m256 482h256v30h-256z" fill="#5bb267"/></g></svg>