<svg width="512" height="512" xmlns="http://www.w3.org/2000/svg">

 <g>
  <title>background</title>
  <rect fill="none" id="canvas_background" height="402" width="582" y="-1" x="-1"/>
 </g>
 <g>
  <title>Layer 1</title>
  <path id="svg_2" fill="#4e588b" d="m123,171.423l-30,0l0,-121.994c0,-27.255 22.174,-49.429 49.429,-49.429l144.25,0c27.255,0 49.428,22.174 49.428,49.429l0,52.926l-30,0l0,-52.926c0,-10.713 -8.715,-19.429 -19.428,-19.429l-144.25,0c-10.713,0 -19.429,8.716 -19.429,19.429l0,121.994z"/>
  <path id="svg_3" fill="#d6d6ea" d="m71.36,140.21l71.35,0l0,94.73l-71.35,0l0,-94.73z"/>
  <path id="svg_4" fill="#a9aaca" d="m107.04,140.21l35.67,0l0,94.73l-35.67,0l0,-94.73z"/>
  <path id="svg_5" fill="#d6d6ea" d="m285.43,68.86l71.36,0l0,95.09l-71.36,0l0,-95.09z"/>
  <path id="svg_6" fill="#a9aaca" d="m321.11,68.86l35.68,0l0,95.09l-35.68,0l0,-95.09z"/>
  <path id="svg_7" fill="#293e65" d="m512,482l-30,15l0,-172.143c0,-10.713 -8.716,-19.428 -19.429,-19.428l-48.428,0l0,-30l48.428,0c27.255,0 49.429,22.173 49.429,49.428l0,157.143z"/>
  <path id="svg_8" fill="#d6d6ea" d="m428.14,211.57l0,285.43l-214.07,0l0,-285.43l107.04,-14l107.03,14z"/>
  <path id="svg_9" fill="#a9aaca" d="m428.14,211.57l0,285.43l-107.03,0l0,-299.43l107.03,14z"/>
  <path id="svg_10" fill="#4e588b" d="m340.54,197.57l0,62.86l-38.86,0l0,-62.86l-30,0l0,258l30,0l0,-27.43l38.86,0l0,27.43l30,0l0,-258l-30,0zm0,200.57l-38.86,0l0,-38.85l38.86,0l0,38.85zm0,-68.85l-38.86,0l0,-38.86l38.86,0l0,38.86z"/>
  <path id="svg_11" fill="#293e65" d="m370.54,197.57l0,258l-30,0l0,-27.43l-19.43,0l0,-30l19.43,0l0,-38.85l-19.43,0l0,-30l19.43,0l0,-38.86l-19.43,0l0,-30l19.43,0l0,-62.86l30,0z"/>
  <path id="svg_12" fill="#f1f1f1" d="m428.14,211.57l-214.07,0c0,-39.41 31.95,-71.36 71.36,-71.36l71.36,0c39.41,0 71.35,31.95 71.35,71.36z"/>
  <path id="svg_13" fill="#d6d6ea" d="m428.14,211.57l-107.03,0l0,-71.36l35.68,0c39.41,0 71.35,31.95 71.35,71.36z"/>
  <path id="svg_14" fill="#d6d6ea" d="m214.07,282.93l0,214.07l-214.07,0l0,-214.07l107.04,-14l107.03,14z"/>
  <path id="svg_15" fill="#a9aaca" d="m214.07,282.93l0,214.07l-107.03,0l0,-228.07l107.03,14z"/>
  <path id="svg_16" fill="#4e588b" d="m141.46,413.14l0,30l-20.52,0l0,50.86l-30,0l0,-50.86l-18.33,0l0,-30l68.85,0z"/>
  <path id="svg_17" fill="#293e65" d="m141.46,413.14l0,30l-20.52,0l0,50.86l-13.9,0l0,-80.86l34.42,0z"/>
  <path id="svg_18" fill="#f1f1f1" d="m214.07,280.43l0,2.5l-214.07,0l0,-2.5c0,-38.03 30.83,-68.86 68.86,-68.86l76.35,0c38.03,0 68.86,30.83 68.86,68.86z"/>
  <path id="svg_19" fill="#d6d6ea" d="m214.07,280.43l0,2.5l-107.03,0l0,-71.36l38.17,0c38.03,0 68.86,30.83 68.86,68.86z"/>
  <path id="svg_20" fill="#4e588b" d="m0,482l512,0l0,30l-512,0l0,-30z"/>
  <path id="svg_21" fill="#4e588b" d="m256,482l256,0l0,30l-256,0l0,-30z"/>
 </g>
</svg>