<svg width="6395" height="1079" xmlns="http://www.w3.org/2000/svg">
 <defs>
  <clipPath id="clip-path">
   <rect x="-5391" y="0" fill="#fff" height="1079" width="6395" id="Rectangle_73"/>
  </clipPath>
 </defs>
 <g>
  <title>background</title>
  <rect fill="none" id="canvas_background" height="402" width="582" y="-1" x="-1"/>
 </g>
 <g>
  <title>Layer 1</title>
  <path fill="#f1f5f8" d="m6367.01818,-7.302s-222.478,187.809 -55.349,583.254c44.957,106.375 81.514,205.964 84.521,277c8.164,192.764 -156.046,268.564 -156.046,268.564l-653.53,-26.8l-16.265,-1117.467l796.669,15.449z" id="Path_142"/>
  <path stroke="null" fill="#299ae1" d="m5593.08496,1081.477l0,-1.6l-5599.8,0l0,-1080.178l5599.8,0l0,-0.022l759.7,0s-187.845,197.448 -91.626,488.844c49.167,148.9 96.309,256.289 104.683,362.118c7.979,100.852 -57.98,201.711 -168.644,254.286c-65.858,31.29 -144.552,42.382 -223.028,42.383c-191.185,0.001 -381.085,-65.831 -381.085,-65.831z" id="Union_6"/>
 </g>
</svg>